<?xml version="1.0" ?><!DOCTYPE svg  PUBLIC '-//W3C//DTD SVG 1.1//EN'  'http://www.w3.org/Graphics/SVG/1.1/DTD/svg11.dtd'><svg enable-background="new 0 0 512 512" id="Layer_1" version="1.1" viewBox="0 0 512 512" xml:space="preserve" xmlns="http://www.w3.org/2000/svg" xmlns:xlink="http://www.w3.org/1999/xlink"><g><g id="XMLID_433_"><polyline fill="none" id="XMLID_445_" points="    198,259 198,196.3 314,196.3 314,259.3   " stroke="#000000" stroke-linecap="round" stroke-linejoin="round" stroke-miterlimit="10" stroke-width="10"/><polyline fill="none" id="XMLID_443_" points="    197.8,218.1 176.2,233.5 176.2,244.3   " stroke="#000000" stroke-linecap="round" stroke-linejoin="round" stroke-miterlimit="10" stroke-width="10"/><polyline fill="none" id="XMLID_440_" points="    283.8,196.3 256,176.5 256,176.5 228.2,196.3   " stroke="#000000" stroke-linecap="round" stroke-linejoin="round" stroke-miterlimit="10" stroke-width="10"/><polyline fill="none" id="XMLID_439_" points="    335.8,244.3 335.8,233.5 314,217.9   " stroke="#000000" stroke-linecap="round" stroke-linejoin="round" stroke-miterlimit="10" stroke-width="10"/><path d="    M176.2,318.4v7.4c0,5.4,4.3,9.7,9.7,9.7h140.3c5.4,0,9.7-4.3,9.7-9.7v-7.4" fill="none" id="XMLID_438_" stroke="#000000" stroke-linecap="round" stroke-linejoin="round" stroke-miterlimit="10" stroke-width="10"/><g id="XMLID_435_"><polygon fill="none" id="XMLID_437_" points="     335.8,320.3 282.5,282.2 335.8,244    " stroke="#000000" stroke-linecap="round" stroke-linejoin="round" stroke-miterlimit="10" stroke-width="10"/><polygon fill="none" id="XMLID_436_" points="     176.2,320.3 229.5,282.2 176.2,244    " stroke="#000000" stroke-linecap="round" stroke-linejoin="round" stroke-miterlimit="10" stroke-width="10"/></g><line fill="none" id="XMLID_434_" stroke="#000000" stroke-linecap="round" stroke-linejoin="round" stroke-miterlimit="10" stroke-width="10" x1="283.6" x2="228.3" y1="282.2" y2="282.2"/></g><path d="   M496,146.1v219.7c0,15.9-12.9,28.7-28.7,28.7H44.7c-15.9,0-28.7-12.9-28.7-28.7V146.1c0-15.9,12.9-28.7,28.7-28.7h422.5   C483.1,117.4,496,130.3,496,146.1z" fill="none" id="XMLID_487_" stroke="#000000" stroke-linecap="round" stroke-linejoin="round" stroke-miterlimit="10" stroke-width="10"/><line fill="none" id="XMLID_1_" stroke="#000000" stroke-linecap="round" stroke-linejoin="round" stroke-miterlimit="10" stroke-width="10" x1="36.3" x2="36.3" y1="294" y2="218"/><path d="   M480.4,228.2v55.6c0,5.1-4.1,9.3-9.3,9.3h0c-5.1,0-9.3-4.1-9.3-9.3v-55.6c0-5.1,4.1-9.3,9.3-9.3h0   C476.2,218.9,480.4,223.1,480.4,228.2z" fill="none" id="XMLID_485_" stroke="#000000" stroke-linecap="round" stroke-linejoin="round" stroke-miterlimit="10" stroke-width="10"/><rect fill="none" height="232.3" id="XMLID_482_" stroke="#000000" stroke-linecap="round" stroke-linejoin="round" stroke-miterlimit="10" stroke-width="10" width="389.4" x="57.1" y="139.9"/></g></svg>